<svg id="Layer_1" data-name="Layer 1" xmlns="http://www.w3.org/2000/svg" xmlns:xlink="http://www.w3.org/1999/xlink" viewBox="0 0 735 852"><defs><style>.cls-1{fill:#ba6f38;}.cls-2{clip-path:url(#clip-path);}.cls-3{fill:#164f86;}.cls-4{fill:#14275b;}.cls-5{fill:#e6b35a;}.cls-12,.cls-14,.cls-6{fill:#fff;}.cls-7{fill:#ba3224;}.cls-8{fill:#b13728;}.cls-9{fill:#aa3729;}.cls-10{fill:#221819;}.cls-11{fill:#1a171b;opacity:0.1;}.cls-12{opacity:0.94;font-size:167.7px;letter-spacing:-0.03em;}.cls-12,.cls-14{font-family:MyriadPro-Regular, Myriad Pro;}.cls-13{letter-spacing:-0.03em;}.cls-14{font-size:25px;}.cls-15{letter-spacing:0.01em;}.cls-16{letter-spacing:-0.04em;}.cls-17{letter-spacing:-0.02em;}.cls-18{letter-spacing:-0.01em;}.cls-19{letter-spacing:0em;}</style><clipPath id="clip-path"><polygon class="cls-1" points="369.49 7.99 728.18 215.06 728.18 637.22 369.49 845.62 2.77 637.22 2.77 215.06 369.49 7.99"/></clipPath></defs><title> </title><polygon class="cls-1" points="369.49 7.99 728.18 215.06 728.18 637.22 369.49 845.62 2.77 637.22 2.77 215.06 369.49 7.99"/><g class="cls-2"><circle class="cls-3" cx="365.48" cy="438.05" r="442.13"/></g><path class="cls-4" d="M705.59,196.81,427.79,36.42,367.48,1.6,307.16,36.42,29.35,196.82.06,213.72V638l29.28,16.91,281.28,162.4,56.85,32.82,56.85-32.82L705.59,654.89,734.89,638V213.72Zm0,425.26L367.47,817.28,29.35,622.06V231.63L367.47,36.42h0L705.59,231.63Z"/><path class="cls-5" d="M367,637.9c.29-.29.6-.59.93-.89h-.26Z"/><path class="cls-6" d="M298.15,262.17q0-41.4,0-82.81a11.14,11.14,0,0,1,2.9-8,9.29,9.29,0,0,1,5.48-2.86,37.89,37.89,0,0,1,6.08-.29h72.61c2,0,2,0,2,2,0,12.17.15,24.34-.05,36.51a13.47,13.47,0,0,0,13.33,13.33h30.39c1.56,0,3.13,0,4.69,0,.85,0,1.29.26,1.22,1.16,0,.47,0,1,0,1.43q0,61,0,122a13.49,13.49,0,0,1-1,5.56c-1.71,3.87-4.82,5.71-8.93,6-.34,0-.68,0-1,0H309a11.23,11.23,0,0,1-5.67-1.32c-3.38-1.91-4.88-5-5.18-8.71,0-.61,0-1.22,0-1.84Q298.15,303.27,298.15,262.17Z"/><path class="cls-6" d="M394.3,168.58c14,14.7,28.22,29.22,42,44.17-.24.7-.8.45-1.21.45q-16.92,0-33.84,0a9.59,9.59,0,0,1-3-.42,6,6,0,0,1-4.48-6.06q0-17.33,0-34.65c0-.82,0-1.63,0-2.45A1,1,0,0,1,394.3,168.58Z"/><path class="cls-4" d="M367.6,291.79h47.73a2.65,2.65,0,0,1,2.73,2,12.16,12.16,0,0,1,.11,6.63,3,3,0,0,1-3.13,2.4c-.54,0-1.09,0-1.63,0-30.66,0-61.32,0-92,0-4.06,0-5-1.55-5-4.92,0-.82,0-1.63,0-2.45.18-2.67,1.32-3.74,4-3.74H367.6Z"/><path class="cls-4" d="M415.27,317.54c1.84.22,2.6.85,2.94,2.46a13.11,13.11,0,0,1,0,6,3,3,0,0,1-3.07,2.45c-.34,0-.68,0-1,0H320.92a12.85,12.85,0,0,1-1.43,0,3.11,3.11,0,0,1-2.83-2.52,17.21,17.21,0,0,1,0-5.88c.32-1.73,1.2-2.36,3.13-2.54a3.75,3.75,0,0,0,2,.19h91.49A4,4,0,0,0,415.27,317.54Z"/><path class="cls-4" d="M319.39,277.08a2.66,2.66,0,0,1-2.72-2.5,15.42,15.42,0,0,1,0-5.67,3.16,3.16,0,0,1,3.28-2.77c.54,0,1.09,0,1.63,0h92.93c2.4,0,3.58.92,3.9,3.26a13,13,0,0,1-.21,5.45c-.46,1.57-1.11,2.07-2.91,2.26a4.23,4.23,0,0,0-2-.17H321.4A4.55,4.55,0,0,0,319.39,277.08Z"/><path class="cls-4" d="M349.18,251.64H320.84c-3.27-.05-4.35-1.14-4.36-4.47a26.49,26.49,0,0,1,.09-3.46c.27-2.14,1.38-3.09,3.52-3.18.41,0,.82,0,1.22,0h55.45c.41,0,.82,0,1.22,0,2.26.11,3.35,1.19,3.41,3.43,0,1.49.05,3,0,4.48a3.1,3.1,0,0,1-3.06,3.17c-.61.06-1.22,0-1.83,0Z"/><path class="cls-4" d="M379,215.1a2.71,2.71,0,0,1,2.41,2.82,43.16,43.16,0,0,1,0,5.09,3.07,3.07,0,0,1-2.83,3,14,14,0,0,1-1.83,0H321.31c-3.81,0-4.82-1-4.83-4.81a14,14,0,0,1,.21-3.85c.33-1.17.89-2.12,2.28-2.23a3.49,3.49,0,0,0,1.8.18h56.41A3.09,3.09,0,0,0,379,215.1Z"/><path class="cls-7" d="M319.39,277.08c.56-.58,1.28-.36,1.93-.36q46,0,92,0c.65,0,1.38-.22,1.93.37-.68,0-1.35.09-2,.09H321.42C320.74,277.18,320.06,277.11,319.39,277.08Z"/><path class="cls-8" d="M415.27,317.54c-.54.6-1.27.38-1.92.38H321.69c-.65,0-1.38.22-1.92-.39.74,0,1.49-.1,2.23-.1h91C413.78,317.42,414.52,317.5,415.27,317.54Z"/><path class="cls-9" d="M379,215.1c-.54.61-1.26.4-1.91.4q-28.08,0-56.17,0c-.65,0-1.37.22-1.92-.37a5.65,5.65,0,0,1,2.21-.19h55.57A6.1,6.1,0,0,1,379,215.1Z"/><path class="cls-6" d="M268.19,625.09c1.74,0,3.48,0,5.22,0h38.93c.72,0,1.44,0,2.16-.06.85.23.83.93.83,1.59,0,8.24,0,16.47,0,24.71,0,1.39-.61,2-2,2H270.65c-2.92,0-3.11-.18-3.11-3q0-11.36,0-22.73C267.55,626.72,267.3,625.74,268.19,625.09Z"/><path class="cls-6" d="M392.58,684.66h-21.1c-.42,0-.84,0-1.26,0-.73,0-1.15-.26-1.1-1.05,0-.12,0-.24,0-.36q0-12.44,0-24.89c0-1.37.09-1.43,1.41-1.48.36,0,.72,0,1.08,0H414c2,0,2,0,2,2q0,12,0,24c0,1.79,0,1.8-1.78,1.81Z"/><path class="cls-6" d="M392.42,652.91H370.06c-.68,0-1-.36-.94-1,0-.3,0-.6,0-.9q0-11.9,0-23.8c0-.24,0-.48,0-.72-.09-.9.27-1.38,1.22-1.32.3,0,.6,0,.9,0H413.8c.42,0,.84,0,1.26,0a.88.88,0,0,1,.95,1c0,.3,0,.6,0,.9q0,11.81,0,23.62c0,1.95.49,2.2-2.12,2.2C406.73,652.9,399.58,652.91,392.42,652.91Z"/><path class="cls-6" d="M268.48,593.29c.48,0,1,.08,1.43.08h42.81c.48,0,1-.05,1.43-.08.86.14,1.18.64,1.18,1.5q0,12.53,0,25.06a1.49,1.49,0,0,1-1.64,1.69c-.54,0-1.08,0-1.62,0H271c-.6,0-1.2,0-1.8,0a1.52,1.52,0,0,1-1.6-1.59q0-.54,0-1.08c0-7.69,0-15.38,0-23.07C267.54,594.87,267.3,593.79,268.48,593.29Z"/><path class="cls-6" d="M370.31,593.3c.48,0,1,.08,1.43.08h42.44c.48,0,1-.05,1.43-.08a1.29,1.29,0,0,1,1.18,1.5q0,12.53,0,25.06c0,1.32-.72,1.39-1.74,1.39-6.67,0-13.34,0-20,0-8,0-16,0-24,0-1.51,0-2-.46-2-1.94.05-8,0-16,0-24C369.14,594.45,369,593.46,370.31,593.3Z"/><path class="cls-6" d="M443.66,656.89h21.11c.42,0,.84,0,1.26,0a.77.77,0,0,1,.79.8c0,.24,0,.48,0,.72,0,8,0,16,0,24,0,2.25-.05,2.25-2.25,2.25H422c-2,0-2,0-2-2q0-11.91,0-23.81c0-.36,0-.72,0-1.08a.83.83,0,0,1,.91-.89c.48,0,1,0,1.44,0Z"/><path class="cls-6" d="M420.88,625.07c.42,0,.84.06,1.26.06h43.45c.42,0,.84,0,1.26-.06.61.15.6.56.59,1.11-.21,8.3-.05,16.59-.09,24.89,0,2-.15,2.24-2.25,2.25-6,0-12,0-18,0q-12.09,0-24.17,0c-2.72,0-2.83-.13-2.83-2.85q0-11.64,0-23.27C420.06,626.43,419.74,625.45,420.88,625.07Z"/><path class="cls-6" d="M421.2,593.3c.48,0,1,.08,1.43.08h42.44c.48,0,1-.05,1.43-.08.81.25.83.86.83,1.58,0,8.3,0,16.6,0,24.89,0,1.28-.5,1.75-1.66,1.78l-1.62,0H423.3c-.54,0-1.08,0-1.62,0a1.48,1.48,0,0,1-1.65-1.68q0-12.54,0-25.07A1.29,1.29,0,0,1,421.2,593.3Z"/><path class="cls-6" d="M319.4,593.29c.48,0,1,.09,1.43.09h42.44c.48,0,1-.05,1.43-.08,1.32.19,1.31,1.2,1.32,2.18,0,3.66,0,7.33,0,11,0,4.2,0,8.41,0,12.61,0,2-.14,2.15-2.14,2.15-14.48,0-29,0-43.43,0-1.43,0-1.89-.42-1.88-1.83,0-8.11,0-16.22,0-24.33C318.6,594.4,318.51,593.63,319.4,593.29Z"/><path class="cls-4" d="M268.08,561.49h.34q21.36,0,42.73,0c3.67,0,3.67,0,3.67,3.63q0,11.09,0,22.17c0,2.16,0,2.16-2.09,2.16H270.36a3.82,3.82,0,0,0-1.95.17h-.33c-.69-.35-.55-1-.55-1.58q0-12.49,0-25C267.53,562.49,267.39,561.85,268.08,561.49Z"/><path class="cls-4" d="M392.5,589.31H370.13c-.65,0-1-.27-1-1,0-.36,0-.72,0-1.08q0-11.73,0-23.45c0-.36,0-.72,0-1.08a.79.79,0,0,1,.89-.88h43.84c2.18,0,2.19,0,2.19,2.13q0,11.64,0,23.27c0,.42,0,.84,0,1.26a.73.73,0,0,1-.79.78l-1.44,0Z"/><path class="cls-4" d="M341.7,561.83h21.12c.42,0,.84,0,1.26,0,.74,0,1.14.28,1.1,1.06,0,.3,0,.6,0,.9q0,11.73,0,23.46c0,.36,0,.72,0,1.08,0,.69-.35,1-1,1H319.95c-1.28-.05-1.33-.08-1.36-1.33,0-1.5,0-3,0-4.51q0-9.66,0-19.31c0-.48,0-1,0-1.44s.33-.86.9-.87h22.2Z"/><path class="cls-4" d="M466.83,562.11a11.49,11.49,0,0,0-.22,3.23c.05,7.69-.13,15.39.1,23.08,0,.55-.2.8-.67.85a14.07,14.07,0,0,1-1.44,0H422.2c-2.33,0-2.18.06-2.18-2.14q0-11.64,0-23.27c0-.42,0-.84,0-1.26a.74.74,0,0,1,.8-.78l1.08,0h43.3A2.68,2.68,0,0,1,466.83,562.11Z"/><path class="cls-6" d="M341.75,684.66H321c-.36,0-.72,0-1.08,0-1.29,0-1.33,0-1.34-1.32,0-3.13,0-6.25,0-9.38q0-7.76,0-15.52c0-1.52,0-1.54,1.47-1.55h43.48c1.7,0,1.74,0,1.75,1.7q0,12.18,0,24.36c0,1.69,0,1.71-1.69,1.71Z"/><path class="cls-6" d="M341.94,652.9h-21.1c-.42,0-.84,0-1.26,0-.65,0-1-.23-1-.94,0-.3,0-.6,0-.9q0-12,0-24c0-.3,0-.6,0-.9,0-.66.26-1,.95-1H363.7c1.48,0,1.56.1,1.56,1.52q0,12.35,0,24.7c0,1.51,0,1.53-1.68,1.54Z"/><path class="cls-6" d="M267.63,656.88H312c2.8,0,2.41,0,2.41,2.45q0,11.54,0,23.09c0,.42,0,.84,0,1.26,0,.7-.32,1-1,1H269.25c-1.7,0-1.72,0-1.72-1.65,0-2.59,0-5.17,0-7.76q0-8.21,0-16.41c0-.66.08-1.32.12-2Z"/><path class="cls-10" d="M397,503.4a6,6,0,0,0-2.13,4.51v44.91H340.06V507.91a6,6,0,0,0-2.13-4.51L211.55,326H523.41Z"/><path class="cls-4" d="M337.92,503.4a6,6,0,0,1,2.13,4.51v44.91h54.85V507.91A6,6,0,0,1,397,503.4L523.41,326H211.55Z"/><path class="cls-11" d="M499.62,326,373.25,503.4a6,6,0,0,0-2.13,4.51v7.18l-31.06,16v21.77h54.85V507.91A6,6,0,0,1,397,503.4L523.41,326Z"/><text class="cls-12" transform="translate(196.52 478.61) scale(1 1.06)">r<tspan class="cls-13" x="49.81" y="0">eadr</tspan></text><text class="cls-14" transform="matrix(0.86, -0.5, 0.5, 0.86, 369.26, 809.7)"><tspan class="cls-15">ww</tspan><tspan class="cls-16" x="37.4" y="0">w</tspan><tspan x="54.82" y="0">.rstudi</tspan><tspan class="cls-17" x="120.07" y="0">o</tspan><tspan x="133.2" y="0">.</tspan><tspan class="cls-18" x="138.37" y="0">c</tspan><tspan class="cls-19" x="149.42" y="0">om</tspan></text></svg>